<?xml version="1.0" encoding="UTF-8" standalone="no"?>
<svg
   xmlns:dc="http://purl.org/dc/elements/1.1/"
   xmlns:cc="http://creativecommons.org/ns#"
   xmlns:rdf="http://www.w3.org/1999/02/22-rdf-syntax-ns#"
   xmlns:svg="http://www.w3.org/2000/svg"
   xmlns="http://www.w3.org/2000/svg"
   xmlns:sodipodi="http://sodipodi.sourceforge.net/DTD/sodipodi-0.dtd"
   xmlns:inkscape="http://www.inkscape.org/namespaces/inkscape"
   inkscape:export-ydpi="300"
   inkscape:export-xdpi="300"
   inkscape:export-filename="C:\Users\stegr\Desktop\Halloween 2021\fear-no-evil.png"
   sodipodi:docname="halloween-craft-2021-2.svg"
   inkscape:version="1.0 (4035a4fb49, 2020-05-01)"
   id="svg8"
   version="1.1"
   viewBox="0 0 210 297"
   height="297mm"
   width="210mm">
  <defs
     id="defs2">
    <rect
       id="rect841"
       height="21.294317"
       width="33.695014"
       y="90.714286"
       x="43.845238" />
    <rect
       id="rect835"
       height="80.130952"
       width="154.97024"
       y="24.190476"
       x="31.75" />
    <rect
       x="43.845238"
       y="90.714286"
       width="54.332956"
       height="20.17388"
       id="rect873" />
    <rect
       x="31.75"
       y="24.190476"
       width="154.97024"
       height="80.130952"
       id="rect881" />
    <rect
       x="31.75"
       y="24.190476"
       width="154.97024"
       height="80.130952"
       id="rect887" />
    <rect
       x="31.75"
       y="24.190476"
       width="154.97024"
       height="80.130952"
       id="rect893" />
    <rect
       id="rect917"
       height="21.593421"
       width="80.985305"
       y="24.190476"
       x="31.75" />
    <rect
       id="rect926"
       height="80.130952"
       width="154.97024"
       y="24.190476"
       x="31.75" />
    <rect
       x="31.75"
       y="24.190476"
       width="154.97024"
       height="80.130952"
       id="rect932" />
    <rect
       x="31.75"
       y="24.190476"
       width="154.97024"
       height="80.130952"
       id="rect961" />
    <rect
       x="31.75"
       y="24.190476"
       width="154.97024"
       height="80.130952"
       id="rect963" />
    <rect
       id="rect965"
       height="80.130952"
       width="154.97024"
       y="24.190476"
       x="31.75" />
    <rect
       id="rect1093"
       height="80.130952"
       width="154.97024"
       y="24.190476"
       x="31.75" />
    <rect
       id="rect1095"
       height="80.130952"
       width="154.97024"
       y="24.190476"
       x="31.75" />
    <rect
       id="rect1097"
       height="80.130952"
       width="154.97024"
       y="24.190476"
       x="31.75" />
    <rect
       x="31.75"
       y="24.190476"
       width="80.985305"
       height="21.593421"
       id="rect1099" />
    <rect
       id="rect1101"
       height="80.130952"
       width="154.97024"
       y="24.190476"
       x="31.75" />
  </defs>
  <sodipodi:namedview
     inkscape:window-maximized="1"
     inkscape:window-y="-6"
     inkscape:window-x="-6"
     inkscape:window-height="860"
     inkscape:window-width="1368"
     showgrid="false"
     inkscape:document-rotation="0"
     inkscape:current-layer="layer1"
     inkscape:document-units="mm"
     inkscape:cy="556.47751"
     inkscape:cx="-704.16253"
     inkscape:zoom="0.3955949"
     inkscape:pageshadow="2"
     inkscape:pageopacity="0.0"
     borderopacity="1.0"
     bordercolor="#666666"
     pagecolor="#ffffff"
     id="base"
     inkscape:snap-global="false" />
  <metadata
     id="metadata5">
    <rdf:RDF>
      <cc:Work
         rdf:about="">
        <dc:format>image/svg+xml</dc:format>
        <dc:type
           rdf:resource="http://purl.org/dc/dcmitype/StillImage" />
        <dc:title />
      </cc:Work>
    </rdf:RDF>
  </metadata>
  <g
     id="layer1"
     inkscape:groupmode="layer"
     inkscape:label="Layer 1">
    <g
       id="g1147"
       style="stroke:#808080">
      <path
         sodipodi:nodetypes="ccc"
         id="path1132"
         d="M 0.65868795,0.32934398 105.39007,296.40958 210.12146,0.32934398"
         style="fill:none;stroke:#808080;stroke-width:0.264583px;stroke-linecap:butt;stroke-linejoin:miter;stroke-opacity:1" />
      <path
         sodipodi:nodetypes="csc"
         id="path1130"
         d="m -0.46576273,196.31899 c 0,0 21.42508873,-41.22 105.26237273,-41.22 83.83729,0 105.26238,41.22 105.26238,41.22"
         style="fill:none;stroke:#808080;stroke-width:0.264583px;stroke-linecap:butt;stroke-linejoin:miter;stroke-opacity:1" />
      <path
         style="fill:none;stroke:#808080;stroke-width:0.264583px;stroke-linecap:butt;stroke-linejoin:miter;stroke-opacity:1"
         d="M 0.65868795,197.35796 105.39007,296.56312 210.12146,197.35796"
         id="path1134"
         sodipodi:nodetypes="ccc" />
      <path
         sodipodi:nodetypes="ccc"
         id="path1136"
         d="M 0.65868795,259.28489 105.39007,296.6066 210.12146,259.28489"
         style="fill:none;stroke:#808080;stroke-width:0.264583px;stroke-linecap:butt;stroke-linejoin:miter;stroke-opacity:1" />
    </g>
    <text
       y="0"
       x="33.264015"
       transform="matrix(1.7891674,0,0,1.7891674,-90.833238,-26.922849)"
       xml:space="preserve"
       id="text885"
       style="font-style:normal;font-weight:normal;font-size:10.5833px;line-height:1.05;font-family:sans-serif;letter-spacing:0px;word-spacing:0px;white-space:pre;shape-inside:url(#rect887);fill:#ffffff;fill-opacity:1;stroke:none;stroke-width:0.27946;"><tspan
         x="94.507615"
         y="32.788541"><tspan
           style="font-style:normal;font-variant:normal;font-weight:800;font-stretch:normal;font-family:'League Spartan';-inkscape-font-specification:'League Spartan Ultra-Bold';text-align:center;text-anchor:middle;fill:#ffffff;stroke:#000000;stroke-width:0.27946">I WILL </tspan></tspan></text>
    <text
       y="0"
       x="33.264015"
       transform="matrix(1.7891674,0,0,1.7891674,-90.183666,196.97853)"
       xml:space="preserve"
       id="text891"
       style="font-style:normal;font-weight:normal;font-size:10.5833px;line-height:1.05;font-family:sans-serif;letter-spacing:0px;word-spacing:0px;white-space:pre;shape-inside:url(#rect893);fill:#ffffff;fill-opacity:1;stroke:none;stroke-width:0.27946;"><tspan
         x="81.908941"
         y="32.788541"><tspan
           style="font-style:normal;font-variant:normal;font-weight:800;font-stretch:normal;font-family:'League Spartan';-inkscape-font-specification:'League Spartan Ultra-Bold';text-align:center;text-anchor:middle;fill:#ffffff;stroke:#000000;stroke-width:0.27946">IS WITH ME</tspan></tspan></text>
    <text
       style="font-style:normal;font-weight:normal;font-size:10.5833px;line-height:1.05;font-family:sans-serif;text-align:center;letter-spacing:0px;word-spacing:0px;white-space:pre;shape-inside:url(#rect917);fill:#ffffff;fill-opacity:1;stroke:none;stroke-width:0.436393;"
       id="text915"
       xml:space="preserve"
       transform="matrix(1.1457578,0,0,1.1457578,22.124218,248.24927)"
       x="60.783985"
       y="0"><tspan
         x="44.357673"
         y="32.788541"><tspan
           style="font-style:normal;font-variant:normal;font-weight:bold;font-stretch:normal;font-family:'League Spartan';-inkscape-font-specification:'League Spartan Bold';text-align:center;text-anchor:middle;fill:#000000;stroke:none;stroke-width:0.436393">PSALM 23:4</tspan></tspan></text>
    <text
       y="0"
       x="33.264015"
       transform="matrix(1.7891674,0,0,1.7891674,-90.790633,26.758943)"
       xml:space="preserve"
       id="text951"
       style="font-style:normal;font-weight:normal;font-size:10.5833px;line-height:1.05;font-family:sans-serif;letter-spacing:0px;word-spacing:0px;white-space:pre;shape-inside:url(#rect963);fill:#ffffff;fill-opacity:1;stroke:none;stroke-width:0.27946;"><tspan
         x="101.37022"
         y="32.788541"><tspan
           style="font-style:normal;font-variant:normal;font-weight:800;font-stretch:normal;font-family:'League Spartan';-inkscape-font-specification:'League Spartan Ultra-Bold';text-align:center;text-anchor:middle;fill:#ffffff;stroke:#000000;stroke-width:0.27946">NO </tspan></tspan></text>
    <g
       id="g1121"
       transform="translate(46.716591,-20.117268)">
      <path
         d="M 8.2604761,57.055625 H 26.505816 v 6.87673 h -10.34984 v 4.931798 h 9.53944 v 6.87673 h -9.53944 V 87.618869 H 8.2604761 Z"
         style="font-style:normal;font-variant:normal;font-weight:800;font-stretch:normal;font-size:10.5833px;line-height:1.05;font-family:'League Spartan';-inkscape-font-specification:'League Spartan Ultra-Bold';text-align:center;letter-spacing:0px;word-spacing:0px;text-anchor:middle;white-space:pre;fill:#ffffff;fill-opacity:1;stroke:#000000;stroke-width:0.5"
         id="path976" />
      <path
         d="m 30.617096,57.055625 h 19.98186 v 6.87673 h -12.10951 v 5.047567 h 12.06322 v 6.645192 h -12.06322 v 5.117025 h 12.10951 v 6.87673 h -19.98186 z"
         style="font-style:normal;font-variant:normal;font-weight:800;font-stretch:normal;font-size:10.5833px;line-height:1.05;font-family:'League Spartan';-inkscape-font-specification:'League Spartan Ultra-Bold';text-align:center;letter-spacing:0px;word-spacing:0px;text-anchor:middle;white-space:pre;fill:#ffffff;fill-opacity:1;stroke:#000000;stroke-width:0.5"
         id="path978" />
      <path
         d="m 64.816926,57.055625 h 7.75662 l 12.31788,30.563244 h -8.4049 l -2.10701,-5.742184 h -11.34541 l -2.10701,5.742184 h -8.45124 z m 0.8567,17.94433 h 6.08952 l -3.01004,-8.451199 h -0.0696 z"
         style="font-style:normal;font-variant:normal;font-weight:800;font-stretch:normal;font-size:10.5833px;line-height:1.05;font-family:'League Spartan';-inkscape-font-specification:'League Spartan Ultra-Bold';text-align:center;letter-spacing:0px;word-spacing:0px;text-anchor:middle;white-space:pre;fill:#ffffff;fill-opacity:1;stroke:#000000;stroke-width:0.5"
         id="path980" />
      <path
         d="m 86.869656,57.055625 h 13.05884 q 2.709004,0 4.816014,1.157701 2.10701,1.134545 3.31104,3.264707 1.20398,2.107015 1.20398,5.047567 0,2.917401 -0.99562,4.746564 -0.99561,1.806011 -2.38485,2.73217 -1.38925,0.926159 -2.57008,1.134545 l 7.38613,12.47999 H 101.8271 L 95.367146,75.740883 h -0.60199 v 11.877986 h -7.8955 z m 7.8955,13.29038 h 2.31542 q 1.55131,0 2.80163,-0.740924 1.273464,-0.764083 1.273464,-2.824788 0,-2.060704 -1.250314,-2.801627 -1.22718,-0.740928 -2.75534,-0.740928 h -2.38486 z"
         style="font-style:normal;font-variant:normal;font-weight:800;font-stretch:normal;font-size:10.5833px;line-height:1.05;font-family:'League Spartan';-inkscape-font-specification:'League Spartan Ultra-Bold';text-align:center;letter-spacing:0px;word-spacing:0px;text-anchor:middle;white-space:pre;fill:#ffffff;fill-opacity:1;stroke:#000000;stroke-width:0.5"
         id="path982" />
      <rect
         style="fill:#ffffff;stroke:#000000;stroke-width:0.5;stop-color:#000000"
         id="rect957"
         width="114.231"
         height="3.3"
         x="1.1679076"
         y="70.606712" />
    </g>
    <g
       id="g1128"
       transform="translate(-53.138802,-8.4634471)">
      <path
         d="m 113.66654,99.310824 h 19.9819 v 6.876726 h -12.10956 v 5.04757 h 12.06322 v 6.64519 h -12.06322 v 5.11703 h 12.10956 v 6.87673 h -19.9819 z"
         style="font-style:normal;font-variant:normal;font-weight:800;font-stretch:normal;font-size:10.5833px;line-height:1.05;font-family:'League Spartan';-inkscape-font-specification:'League Spartan Ultra-Bold';text-align:center;letter-spacing:0px;word-spacing:0px;text-anchor:middle;white-space:pre;fill:#ffffff;fill-opacity:1;stroke:#000000;stroke-width:0.5"
         id="path967" />
      <path
         d="m 156.55278,129.87407 h -8.868 L 136.91821,99.310824 h 8.89111 l 6.32103,20.421806 6.29789,-20.421806 h 8.91425 z"
         style="font-style:normal;font-variant:normal;font-weight:800;font-stretch:normal;font-size:10.5833px;line-height:1.05;font-family:'League Spartan';-inkscape-font-specification:'League Spartan Ultra-Bold';text-align:center;letter-spacing:0px;word-spacing:0px;text-anchor:middle;white-space:pre;fill:#ffffff;fill-opacity:1;stroke:#000000;stroke-width:0.5"
         id="path969" />
      <path
         d="m 170.76498,99.310824 h 7.89549 v 30.563246 h -7.89549 z"
         style="font-style:normal;font-variant:normal;font-weight:800;font-stretch:normal;font-size:10.5833px;line-height:1.05;font-family:'League Spartan';-inkscape-font-specification:'League Spartan Ultra-Bold';text-align:center;letter-spacing:0px;word-spacing:0px;text-anchor:middle;white-space:pre;fill:#ffffff;fill-opacity:1;stroke:#000000;stroke-width:0.5"
         id="path971" />
      <path
         d="m 183.92581,99.310824 h 7.89554 v 23.686516 h 10.78971 v 6.87673 h -18.68525 z"
         style="font-style:normal;font-variant:normal;font-weight:800;font-stretch:normal;font-size:10.5833px;line-height:1.05;font-family:'League Spartan';-inkscape-font-specification:'League Spartan Ultra-Bold';text-align:center;letter-spacing:0px;word-spacing:0px;text-anchor:middle;white-space:pre;fill:#ffffff;fill-opacity:1;stroke:#000000;stroke-width:0.5"
         id="path973" />
      <rect
         y="112.82613"
         x="107.44551"
         height="3.3"
         width="101.38658"
         id="rect959"
         style="fill:#ffffff;stroke:#000000;stroke-width:0.5;stop-color:#000000" />
    </g>
    <g
       aria-label="GOD"
       id="text1028"
       style="font-style:normal;font-weight:normal;font-size:74.5238px;line-height:1.25;font-family:sans-serif;letter-spacing:0px;word-spacing:0px;fill:#ffffff;fill-opacity:1;stroke:#000000;stroke-width:0.264583"
       transform="translate(-19.494028,-135.4999)">
      <path
         d="m 78.038918,358.53676 c -0.630735,2.47442 -0.946103,4.53644 -0.946103,6.18606 l 0.654994,0.32749 -0.654994,1.96499 0.327497,0.65499 c 1.964983,-0.0243 2.947474,-0.35176 2.947474,-0.98249 h 0.654995 v 1.30999 h 0.327497 c 0.436663,-0.99462 0.654994,-1.75878 0.654994,-2.29248 h 0.654995 l -0.327497,2.29248 c 0.436663,-0.12129 0.76416,-0.77629 0.982491,-1.96498 h 0.654994 l -0.327497,1.63748 v 0.3275 h 0.327497 c 0,-0.65499 0.218332,-0.98249 0.654995,-0.98249 v 0.32749 c 0.873326,-0.65499 1.637486,-0.98249 2.29248,-0.98249 v -1.63748 c 1.01888,0 2.001372,-3.71164 2.947475,-11.13491 1.746651,-3.4933 2.838309,-6.76827 3.274972,-9.82491 0.145554,-1.30999 0.363885,-1.96499 0.654994,-1.96499 l -0.327497,-2.29248 v -2.29248 l 1.309989,-1.63748 c -1.309989,0 -2.401647,-0.655 -3.274972,-1.96499 -0.194073,0 -1.067399,-0.21833 -2.619978,-0.65499 l -1.964983,1.63749 h -0.327497 l -0.654994,-0.3275 c 0,0.41241 -0.982492,1.28573 -2.947475,2.61998 l -0.982492,1.30999 c 0.436663,0.70351 0.654995,1.24933 0.654995,1.63748 -0.752031,0 -1.516191,3.12942 -2.292481,9.38825 l -6.477166,2.8747 c -9.533807,3.51757 -13.669975,1.11592 -12.408504,-7.20494 1.26147,-8.32085 4.500053,-14.64033 9.715749,-18.95844 3.274972,-1.64962 8.151041,-3.00813 14.628208,-4.07553 6.477167,-1.06739 11.244069,-2.55932 14.300707,-4.47579 1.89221,-1.89221 2.83831,-3.56608 2.83831,-5.02162 -2.78979,-0.46093 -5.628098,-0.69139 -8.514925,-0.69139 l -0.327497,-0.69138 -0.691383,0.36389 h -0.327497 c -13.124147,-0.19407 -22.74286,2.25609 -28.856141,7.35049 -5.094401,3.92997 -9.072885,10.83167 -11.935453,20.7051 -0.873325,5.28847 -1.309988,9.50955 -1.309988,12.66322 0.75203,4.12404 2.814049,6.85318 6.186058,8.18743 3.372008,1.33425 7.65373,1.44341 12.845167,0.3275 2.935345,-0.63073 5.603841,-1.30999 8.005487,-2.03776 z"
         style="font-style:normal;font-variant:normal;font-weight:normal;font-stretch:normal;font-family:'Lived Mas NEW! With Numbers';-inkscape-font-specification:'Lived Mas NEW! With Numbers';fill:#ffffff;stroke:#000000;stroke-width:0.264583"
         id="path1030"
         sodipodi:nodetypes="cccccccccccccccccccccccccccccccccccccscscccccccccscc" />
      <path
         d="m 109.58781,364.90476 c 0.89759,-0.16981 1.8073,-0.4124 2.72915,-0.72777 l 0.40027,0.3275 0.47305,-0.54583 0.36389,-0.14556 c 12.27508,-4.48792 20.26844,-10.05537 23.98007,-16.70235 3.20219,-5.26421 4.19681,-12.74813 2.98386,-22.45175 -1.28573,-4.94885 -2.53507,-8.81817 -3.74802,-11.60796 -1.21295,-1.72239 -2.58359,-2.99599 -4.11191,-3.8208 0.19407,-1.01888 0.15768,-1.89221 -0.10917,-2.61998 -2.81405,0.38815 -5.60384,1.00675 -8.36937,1.85582 l -0.54583,-0.54583 -0.54583,0.54583 -0.2911,0.10916 c -12.61471,3.71164 -20.95982,8.86669 -25.035345,15.46515 -3.493303,5.21569 -4.900328,12.89368 -4.221075,23.03397 0.994621,5.21569 2.037761,9.30334 3.129418,12.26295 2.159055,3.73589 6.465032,5.59171 12.917942,5.56745 z m 0.54583,-38.57189 0.80055,-0.76416 c 2.28035,-1.57684 5.13079,-3.22646 8.55131,-4.94885 2.37739,-1.21295 4.46367,-2.40165 6.25884,-3.56608 1.81943,0.75203 3.1658,2.76554 4.03913,6.04051 2.08628,7.76289 1.55258,14.47052 -1.6011,20.12288 -2.40164,2.59572 -6.40438,5.51894 -12.00823,8.76965 -2.20757,1.74665 -4.48792,2.72914 -6.84105,2.94747 -2.5472,0.63073 -4.25746,-1.17657 -5.13079,-5.4219 -1.67387,-8.19956 -0.76416,-15.10126 2.72915,-20.7051 0.72777,-0.72777 1.58896,-1.46767 2.58359,-2.2197 z"
         style="font-style:normal;font-variant:normal;font-weight:normal;font-stretch:normal;font-family:'Lived Mas NEW! With Numbers';-inkscape-font-specification:'Lived Mas NEW! With Numbers';fill:#ffffff;stroke:#000000;stroke-width:0.264583"
         id="path1032"
         sodipodi:nodetypes="cccccccccccccccccccccccccccccc" />
      <path
         d="m 183.89329,350.4585 c 1.23721,-1.55258 2.29248,-5.73727 3.1658,-12.55406 0.89759,-6.84105 0.0364,-12.60258 -2.58358,-17.28458 0,-5.21569 -5.44616,-8.86668 -16.33848,-10.95296 v 0.3275 c -0.92184,-0.46092 -1.4798,-0.66712 -1.67387,-0.61861 l -0.25472,0.72777 c -0.36389,0.14556 -0.54583,0.0121 -0.54583,-0.40027 0,-0.33963 -1.01888,-0.54583 -3.05664,-0.61861 0,0.21833 -0.097,0.55796 -0.29111,1.01888 -0.43666,0.16981 -0.71564,-0.43666 -0.83693,-1.81942 l -0.54583,0.21833 v 0.32749 l -0.83694,0.3275 c -0.16981,0.0728 -0.90971,0.66713 -2.2197,1.78304 -0.60648,-0.77629 -1.34638,-0.99462 -2.21971,-0.65499 l 0.29111,0.50944 v 0.29111 c 0,0.4124 -0.46092,0.80054 -1.38276,1.16443 v 0.90972 l 0.54582,-0.21834 v 0.90972 c -0.92184,0.36389 -1.38276,0.75203 -1.38276,1.16443 v 2.11054 l 1.38276,0.98249 -0.2911,0.72777 c 0.0485,0 0.12131,0.0243 0.21833,0.0728 -1.23721,3.05664 -2.07415,4.82755 -2.51081,5.31273 l 0.6186,0.29111 c -2.0135,6.18606 -4.4394,12.33573 -7.27771,18.44901 -5.33699,9.89769 -8.24808,14.93145 -8.73326,15.10126 -0.41241,0.0485 -0.61861,0.24261 -0.61861,0.58222 v 0.32749 c 0.55796,5.43403 1.77091,8.15104 3.63886,8.15104 0,0.19407 0.097,0.29111 0.29111,0.29111 10.1888,-0.48518 18.75224,-1.96498 25.69033,-4.4394 6.93809,-2.45017 12.8573,-6.62272 17.75763,-12.51767 z M 167.3001,322.80318 c 3.15367,0.89759 4.91245,1.73452 5.27634,2.51081 5.23995,1.74665 6.22245,8.47854 2.94748,20.19566 0,0.46092 -0.72777,1.74665 -2.18332,3.85719 -0.38815,-0.0485 -0.77629,-0.0728 -1.16443,-0.0728 -3.49331,2.93535 -7.83568,4.76691 -13.02711,5.49468 -0.29111,0 -2.00138,-0.21833 -5.13079,-0.655 v -0.6186 h 0.90971 v -0.29111 c -2.0135,0 -3.02025,-0.30324 -3.02025,-0.90972 0,-1.11591 2.06202,-5.89495 6.18606,-14.3371 4.14829,-8.44215 6.84105,-13.63358 8.07826,-15.57431 z"
         style="font-style:normal;font-variant:normal;font-weight:normal;font-stretch:normal;font-family:'Lived Mas NEW! With Numbers';-inkscape-font-specification:'Lived Mas NEW! With Numbers';fill:#ffffff;stroke:#000000;stroke-width:0.264583"
         id="path1034"
         sodipodi:nodetypes="sccccccscccccccccsccccsccccccccsccccssccccccccccsccc" />
    </g>
    <text
       y="0"
       x="33.264015"
       transform="matrix(1.7891674,0,0,1.7891674,-90.193135,101.83464)"
       xml:space="preserve"
       id="text879"
       style="font-style:normal;font-weight:normal;font-size:10.5833px;line-height:1.05;font-family:sans-serif;letter-spacing:0px;word-spacing:0px;white-space:pre;shape-inside:url(#rect881);fill:#ffffff;fill-opacity:1;stroke:none;stroke-width:0.27946;"><tspan
         x="87.004221"
         y="32.788541"><tspan
           style="font-style:normal;font-variant:normal;font-weight:800;font-stretch:normal;font-family:'League Spartan';-inkscape-font-specification:'League Spartan Ultra-Bold';text-align:center;text-anchor:middle;fill:#ffffff;stroke:#000000;stroke-width:0.27946">BECAUSE</tspan></tspan></text>
  </g>
</svg>
