<?xml version="1.0" encoding="UTF-8" standalone="no"?>
<svg
   xmlns:dc="http://purl.org/dc/elements/1.1/"
   xmlns:cc="http://creativecommons.org/ns#"
   xmlns:rdf="http://www.w3.org/1999/02/22-rdf-syntax-ns#"
   xmlns:svg="http://www.w3.org/2000/svg"
   xmlns="http://www.w3.org/2000/svg"
   xmlns:sodipodi="http://sodipodi.sourceforge.net/DTD/sodipodi-0.dtd"
   xmlns:inkscape="http://www.inkscape.org/namespaces/inkscape"
   inkscape:export-ydpi="300"
   inkscape:export-xdpi="300"
   inkscape:export-filename="C:\Users\stegr\Desktop\Halloween 2021\light-shines.png"
   width="210mm"
   height="297mm"
   viewBox="0 0 210 297"
   version="1.1"
   id="svg8"
   inkscape:version="1.0 (4035a4fb49, 2020-05-01)"
   sodipodi:docname="halloween-craft-2021.svg">
  <defs
     id="defs2">
    <rect
       x="43.845238"
       y="90.714286"
       width="33.695014"
       height="21.294317"
       id="rect841" />
    <rect
       x="31.75"
       y="24.190476"
       width="154.97024"
       height="80.130952"
       id="rect835" />
    <rect
       id="rect873"
       height="20.17388"
       width="54.332956"
       y="90.714286"
       x="43.845238" />
    <rect
       id="rect881"
       height="80.130952"
       width="154.97024"
       y="24.190476"
       x="31.75" />
    <rect
       id="rect887"
       height="80.130952"
       width="154.97024"
       y="24.190476"
       x="31.75" />
    <rect
       id="rect893"
       height="80.130952"
       width="154.97024"
       y="24.190476"
       x="31.75" />
    <rect
       x="31.75"
       y="24.190476"
       width="154.97024"
       height="80.130952"
       id="rect917" />
  </defs>
  <sodipodi:namedview
     id="base"
     pagecolor="#ffffff"
     bordercolor="#666666"
     borderopacity="1.0"
     inkscape:pageopacity="0.0"
     inkscape:pageshadow="2"
     inkscape:zoom="0.7911898"
     inkscape:cx="303.06055"
     inkscape:cy="786.08739"
     inkscape:document-units="mm"
     inkscape:current-layer="layer1"
     inkscape:document-rotation="0"
     showgrid="false"
     inkscape:window-width="1368"
     inkscape:window-height="860"
     inkscape:window-x="-6"
     inkscape:window-y="-6"
     inkscape:window-maximized="1" />
  <metadata
     id="metadata5">
    <rdf:RDF>
      <cc:Work
         rdf:about="">
        <dc:format>image/svg+xml</dc:format>
        <dc:type
           rdf:resource="http://purl.org/dc/dcmitype/StillImage" />
        <dc:title />
      </cc:Work>
    </rdf:RDF>
  </metadata>
  <g
     inkscape:label="Layer 1"
     inkscape:groupmode="layer"
     id="layer1">
    <path
       sodipodi:nodetypes="cscccccccc"
       id="path895"
       d="m 153.89411,299.94145 c 0,0 50.54181,-41.98337 54.28028,-55.93552 3.73846,-13.95215 0,-34.03032 0,-34.03032 L 59.36884,296.84419 m -58.7751516,0 L 208.38462,149.60947 c 0,0 2.96845,-16.02958 -207.7909316,12.46746 L 210.5923,32.929922 m 0,-33.11622844 L -8.8205078,55.186597"
       style="fill:none;stroke:#808080;stroke-width:0.264583px;stroke-linecap:butt;stroke-linejoin:miter;stroke-opacity:1" />
    <text
       y="0"
       x="33.264015"
       transform="matrix(1.7891674,0,0,1.7891674,-89.890172,50.0128)"
       xml:space="preserve"
       id="text833"
       style="font-style:normal;font-weight:normal;font-size:10.5833px;line-height:1.05;font-family:sans-serif;letter-spacing:0px;word-spacing:0px;white-space:pre;shape-inside:url(#rect835);fill:#ffffff;fill-opacity:1;stroke:none;stroke-width:0.27946;"><tspan
         x="74.281524"
         y="32.788541"><tspan
           style="font-style:normal;font-variant:normal;font-weight:800;font-stretch:normal;font-family:'League Spartan';-inkscape-font-specification:'League Spartan Ultra-Bold';text-align:center;text-anchor:middle;fill:#ffffff;stroke:#000000;stroke-width:0.27946">SHINES IN THE
</tspan></tspan><tspan
         x="83.293865"
         y="44.181047"><tspan
           style="font-style:normal;font-variant:normal;font-weight:800;font-stretch:normal;font-family:'League Spartan';-inkscape-font-specification:'League Spartan Ultra-Bold';text-align:center;text-anchor:middle;fill:#ffffff;stroke:#000000;stroke-width:0.27946">DARKNESS</tspan></tspan></text>
    <g
       style="font-style:normal;font-weight:normal;font-size:10.5833px;line-height:1.25;font-family:sans-serif;letter-spacing:0px;word-spacing:0px;white-space:pre;shape-inside:url(#rect841);fill:#ffffff;fill-opacity:1;stroke:#000000;stroke-width:0.0903188"
       id="text839"
       transform="matrix(5.4933839,0,0,5.578843,-227.13266,-477.32373)"
       aria-label="light">
      <path
         sodipodi:nodetypes="ccccsccscccccsccccsccccccscccccsccccccccccccc"
         id="path883"
         style="font-style:normal;font-variant:normal;font-weight:normal;font-stretch:normal;font-family:'Lived Mas NEW! With Numbers';-inkscape-font-specification:'Lived Mas NEW! With Numbers';text-align:center;text-anchor:middle;stroke-width:0.0903188"
         d="m 48.203205,94.975307 0.08785,0.04134 c -0.285942,0.878496 -0.63045,1.751825 -1.033525,2.619986 -0.757919,1.405595 -1.171329,2.12045 -1.240231,2.144565 -0.05857,0.0069 -0.08785,0.03445 -0.08785,0.08268 v 0.04651 c 0.07924,0.771702 0.251491,1.157552 0.516762,1.157552 0,0.0275 0.01378,0.0413 0.04134,0.0413 0.416855,0 1.00252,-0.17226 1.756993,-0.51676 0.451307,-0.0758 0.809596,-0.1602 1.074867,-0.25322 h 0.129191 c 0,-0.12402 0.199815,-0.19637 0.599444,-0.21704 0,-0.0586 0.09991,-0.10166 0.299723,-0.12919 v -0.04134 c 0,-0.05857 -0.02928,-0.08785 -0.08785,-0.08785 -0.227375,0.113686 -0.384127,0.17053 -0.470254,0.17053 v -0.04134 c -0.206705,0.08612 -0.377237,0.12919 -0.511595,0.12919 v -0.0413 c 0,-0.103353 0.542601,-0.261827 1.627802,-0.475422 0,-0.03101 0.242879,-0.187758 0.728636,-0.470254 l 0.12919,-0.258381 c -0.07579,-0.08613 -0.189479,-0.129191 -0.341063,-0.129191 v -0.04134 l 0.04134,-0.08268 c -0.151584,-0.05857 -0.308335,-0.08785 -0.470254,-0.08785 -0.09302,0 -0.637341,0.172254 -1.63297,0.516763 -0.04134,0 -0.356565,0.05684 -0.945676,0.170532 v -0.08785 h 0.129191 v -0.04134 c -0.285942,0 -0.428913,-0.04306 -0.428913,-0.129191 0,-0.158473 0.487479,-1.173051 1.462438,-3.043732 0.244601,-0.647676 0.471977,-1.105872 0.682127,-1.374589 0.03101,-0.158473 0.04651,-0.273884 0.04651,-0.346231 -0.05857,0 -0.08785,-0.04134 -0.08785,-0.124023 l 0.08785,-0.175699 c -0.03101,-0.05512 -0.04651,-0.09818 -0.04651,-0.129191 0.05857,-0.179144 0.08785,-0.292832 0.08785,-0.341063 -0.09302,-0.08613 -0.163642,-0.129191 -0.211873,-0.129191 l -0.08785,0.04134 c -0.165364,-0.113687 -0.265271,-0.170531 -0.299722,-0.170531 -0.685572,0.192925 -1.028358,0.408242 -1.028358,0.645953 -0.265271,0.682127 -0.437526,1.067976 -0.516763,1.157549 z" />
      <path
         sodipodi:nodetypes="ccccccccccccccccccccccccccccccccccccccccccccccccccscsccccccccccccccccccccccccccccccccccccccccccccccc"
         id="path885"
         style="font-style:normal;font-variant:normal;font-weight:normal;font-stretch:normal;font-family:'Lived Mas NEW! With Numbers';-inkscape-font-specification:'Lived Mas NEW! With Numbers';text-align:center;text-anchor:middle;stroke-width:0.0903188"
         d="m 53.531029,92.980603 c -0.320393,0.351399 -0.583942,0.692462 -0.790647,1.02319 0.03101,0.05857 0.04651,0.105075 0.04651,0.139526 -0.06201,0.01033 -0.09302,0.04134 -0.09302,0.09302 0.07924,0 0.234266,0.10852 0.465087,0.32556 0.186035,0 0.310058,0.03101 0.372069,0.09302 h 0.279052 c 0.0689,-0.05512 0.239433,-0.101629 0.511595,-0.139526 0,-0.06201 0.07751,-0.217042 0.232543,-0.465087 -0.06201,0 -0.09302,-0.03101 -0.09302,-0.09302 l 0.04651,-0.232543 -0.09302,-0.04651 0.139526,-0.279052 v -0.09302 c -0.04823,0 -0.110245,-0.03101 -0.186035,-0.09302 h -0.139526 c 0,-0.03445 -0.0155,-0.08096 -0.04651,-0.139526 l -0.09302,0.04651 c -0.04479,0 -0.0913,-0.04651 -0.139526,-0.139525 l -0.232544,0.04651 h -0.09302 z m -0.418578,2.37194 h -0.04651 l -0.09302,-0.04651 c 0,0.05857 -0.139526,0.18259 -0.418578,0.372069 l -0.139526,0.186034 c 0.06201,0.09991 0.09302,0.177422 0.09302,0.232544 -0.124023,0 -0.248046,0.589109 -0.372069,1.767328 -0.279052,0.764809 -0.418578,1.353918 -0.418578,1.767328 l 0.09302,0.04651 -0.09302,0.279052 0.04651,0.09302 -0.04651,0.27905 c 0.03101,0.0586 0.04651,0.1051 0.04651,0.13952 -0.07235,0 -0.134358,0.10852 -0.186034,0.32556 h 0.09302 v -0.18603 h 0.09302 v 0.27905 h 0.04651 c -0.09302,0.21015 -0.139526,0.38068 -0.139526,0.5116 l 0.09302,-0.0465 c 0.06201,0 0.09302,0.0775 0.09302,0.23254 h 0.09302 c 0,-0.0379 0.0155,-0.1929 0.04651,-0.46509 l -0.04651,-0.23254 0.09302,0.0465 v -0.093 H 51.94975 V 100.515 c 0,-0.062 0.04651,-0.093 0.139526,-0.093 v -0.093 c 0,-0.031 -0.0155,-0.0465 -0.04651,-0.0465 0.09302,-0.15847 0.139526,-0.2825 0.139526,-0.37207 h 0.09302 v 0.18603 h 0.04651 c 0.06201,-0.141245 0.09302,-0.249764 0.09302,-0.325556 h 0.09302 l -0.04651,0.325556 c 0.01033,0.062 0.04134,0.093 0.09302,0.093 0,-0.0792 0.0155,-0.203256 0.04651,-0.372067 h 0.09302 l -0.04651,0.232547 v 0.0465 h 0.04651 c 0,-0.093 0.03101,-0.139521 0.09302,-0.139521 v 0.04651 l -0.04651,0.27905 v 0.0465 h 0.04651 c 0.124023,-0.31006 0.232543,-0.465093 0.32556,-0.465093 v -0.232543 c 0.144693,0 0.284219,-0.527098 0.418578,-1.581294 0.248046,-0.496092 0.403075,-0.961178 0.465086,-1.395259 0.02067,-0.186035 0.05168,-0.279052 0.09302,-0.279052 l -0.04651,-0.32556 v -0.32556 l 0.186034,-0.232543 c -0.186034,0 -0.341063,-0.09302 -0.465086,-0.279052 -0.02756,0 -0.151583,-0.03101 -0.372069,-0.09302 z m -0.930174,5.488017 c 0,0.0345 -0.0155,0.081 -0.04651,0.13953 v 0.093 h 0.04651 c 0,-0.0689 0.0155,-0.13092 0.04651,-0.18604 v -0.0465 z m -0.651121,0.32556 c 0,0.0345 -0.0155,0.081 -0.04651,0.13953 v 0.0465 h 0.04651 c 0,-0.0345 0.0155,-0.081 0.04651,-0.13953 v -0.0465 z m 0.139526,0.69763 c 0.07235,0 0.118855,-0.0775 0.139526,-0.23254 -0.07235,0 -0.118855,0.0775 -0.139526,0.23254 z" />
      <path
         sodipodi:nodetypes="sccccccccccccccccccccccccccccccccccccscscccccccccsccs"
         id="path887"
         style="font-style:normal;font-variant:normal;font-weight:normal;font-stretch:normal;font-family:'Lived Mas NEW! With Numbers';-inkscape-font-specification:'Lived Mas NEW! With Numbers';text-align:center;text-anchor:middle;stroke-width:0.0903188"
         d="m 57.939017,99.848379 c -0.08957,0.351401 -0.134359,0.644231 -0.134359,0.878501 l 0.09302,0.0465 -0.09302,0.27906 0.04651,0.093 c 0.279052,-0.003 0.418578,-0.0498 0.418578,-0.13952 h 0.09302 v 0.18603 h 0.04651 c 0.06201,-0.14125 0.09302,-0.24977 0.09302,-0.32556 h 0.09302 l -0.04651,0.32556 c 0.06201,-0.0172 0.108522,-0.11022 0.139526,-0.27905 h 0.09302 l -0.04651,0.23254 v 0.0465 h 0.04651 c 0,-0.093 0.03101,-0.13952 0.09302,-0.13952 v 0.0465 c 0.124023,-0.093 0.232543,-0.13952 0.32556,-0.13952 v -0.23254 c 0.144694,0 0.28422,-0.5271 0.418578,-1.581299 0.248046,-0.496092 0.403075,-0.961178 0.465087,-1.395259 0.02067,-0.186035 0.05168,-0.279052 0.09302,-0.279052 l -0.04651,-0.32556 v -0.325561 l 0.186035,-0.232543 c -0.186035,0 -0.341064,-0.09302 -0.465087,-0.279052 -0.02756,0 -0.151583,-0.03101 -0.372069,-0.09302 l -0.279052,0.232543 h -0.04651 l -0.09302,-0.04651 c 0,0.05857 -0.139526,0.18259 -0.418578,0.37207 L 58.5023,96.959651 c 0.06201,0.09991 0.09302,0.177422 0.09302,0.232543 -0.106797,0 -0.215317,0.444416 -0.32556,1.333248 l -0.919838,0.408243 c -1.353918,0.499537 -1.941305,0.158473 -1.762161,-1.02319 0.179145,-1.181664 0.639064,-2.079109 1.379757,-2.692334 0.465086,-0.234266 1.157548,-0.427191 2.077386,-0.578774 0.919837,-0.151584 1.596796,-0.363457 2.030877,-0.635618 0.268717,-0.268717 0.403075,-0.506428 0.403075,-0.713133 -0.396185,-0.06546 -0.79926,-0.09819 -1.209225,-0.09819 l -0.04651,-0.09819 -0.09819,0.05168 h -0.04651 c -1.863791,-0.02756 -3.229767,0.320393 -4.097928,1.04386 -0.723468,0.558104 -1.288462,1.538231 -1.694982,2.94038 -0.124023,0.751029 -0.186034,1.350473 -0.186034,1.798334 0.106797,0.585665 0.399629,0.973238 0.878496,1.16272 0.478867,0.18948 1.086924,0.20498 1.824173,0.0465 0.416855,-0.0896 0.795814,-0.186038 1.136878,-0.289392 z" />
      <path
         id="path889"
         style="font-style:normal;font-variant:normal;font-weight:normal;font-stretch:normal;font-family:'Lived Mas NEW! With Numbers';-inkscape-font-specification:'Lived Mas NEW! With Numbers';text-align:center;text-anchor:middle;stroke-width:0.0903188"
         d="m 61.504677,96.308554 q -0.666624,0.532266 -0.506428,0.790647 -0.03101,0.0155 -0.01033,0.04651 0.08268,0.134358 0.175699,0.227375 -0.05684,0.165364 -0.118855,0.330728 -0.961179,2.201409 -1.064531,2.24275 -0.08268,0.02067 -0.07751,0.09302 l 0.0052,0.0413 q 0.211873,1.14721 0.707965,0.85266 0,0.0465 0.04651,0.0413 0.52193,0.20671 0.713132,-0.17053 0.191202,-0.37207 0.372069,-0.821645 0.165364,-0.868161 0.795815,-2.516634 0.919837,-0.217041 2.800853,-0.37207 -0.06718,0.186035 -0.134358,0.377237 -0.961178,2.201409 -1.064531,2.24275 -0.08268,0.02067 -0.07751,0.09302 l 0.0052,0.04134 q 0.211873,1.147212 0.60978,1.111042 0,0.0465 0.04651,0.0413 0.620115,-0.0517 0.811317,-0.42891 0.191202,-0.37207 0.372069,-0.821657 0.180867,-0.945676 0.909503,-2.816357 0.08268,0.0052 0.155028,0.01033 0.1757,-0.06718 0.248047,-0.113687 -0.03617,-0.05684 0.05168,-0.108521 l 0.149861,-0.0155 q 0.04134,-0.06201 0.06718,-0.08268 0.222208,-0.05684 0.268717,-0.08268 0.02584,-0.149861 0,-0.201537 l -0.06718,-0.03617 q 0.01033,-0.237711 -0.01034,-0.273885 -0.206705,-0.191202 -0.372069,-0.30489 0.03101,-0.07751 0.06201,-0.155028 0.289387,-0.997352 0.568439,-1.421098 0.02584,-0.242878 0.0155,-0.346231 -0.08268,0.0052 -0.09302,-0.124023 l 0.06718,-0.175699 q -0.04651,-0.08268 -0.05168,-0.124023 0.06201,-0.279052 0.05684,-0.351399 -0.149861,-0.113688 -0.222208,-0.10852 l -0.08268,0.04651 q -0.258381,-0.149861 -0.315225,-0.144694 -1.00252,0.372069 -0.971514,0.728636 -0.310058,1.054195 -0.418578,1.193721 l 0.08785,0.03617 q -0.124023,0.532265 -0.273884,1.059363 -1.02319,0.242879 -2.098057,0.377237 -0.341063,0.02067 -0.620115,0.03617 0.08785,-0.222208 0.186035,-0.449583 0.289387,-0.997352 0.568439,-1.421098 0.02584,-0.242878 0.0155,-0.346231 -0.08268,0.0052 -0.09302,-0.124023 l 0.06718,-0.175699 q -0.04651,-0.08268 -0.05168,-0.124023 0.06201,-0.279052 0.05684,-0.351399 -0.149861,-0.113687 -0.222208,-0.10852 l -0.08268,0.04651 q -0.258381,-0.149861 -0.315225,-0.144694 -1.00252,0.372069 -0.971514,0.728636 -0.310058,1.054196 -0.418578,1.193722 l 0.08785,0.03617 q -0.149861,0.651121 -0.346231,1.297074 z" />
      <path
         sodipodi:nodetypes="cccccccccccccccccccccccccccccccccccccccccccccccccccccccccccccccccccccccc"
         id="path891"
         style="font-style:normal;font-variant:normal;font-weight:normal;font-stretch:normal;font-family:'Lived Mas NEW! With Numbers';-inkscape-font-specification:'Lived Mas NEW! With Numbers';text-align:center;text-anchor:middle;stroke-width:0.0903188"
         d="m 71.938119,94.468879 c 0.902613,-0.05167 1.488277,-0.101627 1.756993,-0.149861 0.18259,-0.04134 0.280775,-0.04134 0.294555,0 l 0.294555,-0.149861 0.310057,-0.09819 0.279052,0.103352 c -0.05857,-0.179144 -0.02067,-0.356566 0.113688,-0.532265 -0.0069,-0.02411 -0.0155,-0.151582 -0.02584,-0.382405 l -0.310058,-0.191202 -0.0155,-0.04651 0.0155,-0.09819 c -0.05512,0.01723 -0.217039,-0.07751 -0.485757,-0.28422 l -0.21704,-0.07235 c -0.07579,0.08957 -0.139526,0.142972 -0.191202,0.160197 -0.04134,-0.117133 -1.388368,0.03617 -4.041084,0.459919 -0.81304,-0.02411 -1.41593,0.02929 -1.80867,0.160196 l -0.0155,0.103353 H 67.60248 l -0.07751,0.07235 -0.279052,0.04651 c -0.04479,0.04823 -0.08441,0.07752 -0.118855,0.08785 l -0.129183,0.04134 -0.268716,0.08785 0.0155,0.04651 c -0.227375,-0.02411 -0.403075,-0.0155 -0.527098,0.02584 l 0.07235,0.07752 c 0.02067,0.05857 -0.04306,0.111965 -0.191202,0.160196 l 0.03101,0.08785 c 0.03445,-0.01378 0.186037,-0.04823 0.454751,-0.103353 l 0.206705,-0.118855 -0.0155,0.103352 0.08785,-0.02584 -0.03101,-0.08785 0.310058,-0.103352 c 0.05857,-0.02067 0.103353,0.01378 0.134358,0.103352 l 0.08785,-0.03101 c 0.02756,-0.01033 0.03789,-0.02928 0.031,-0.05684 0.179145,0.03789 0.310058,0.04306 0.39274,0.0155 l 0.03101,0.08785 -0.1757,0.05684 0.0155,0.04651 c 0.151584,0.01378 0.263549,0.0086 0.335896,-0.0155 l 0.03101,0.08785 -0.325561,0.05684 c -0.05512,0.03101 -0.07407,0.07062 -0.05684,0.118856 0.07579,-0.02411 0.198093,-0.04823 0.366902,-0.07235 l 0.03101,0.08785 -0.237711,0.03101 -0.04134,0.01033 0.01033,0.04651 c 0.08957,-0.03101 0.144693,-0.0155 0.165364,0.04651 l -0.04651,0.01033 -0.279052,0.04651 -0.04651,0.0155 0.0155,0.04134 c 0.334173,0.02067 0.516763,0.07579 0.547768,0.165364 l 0.217041,-0.07751 c 0.04479,0.137803 0.58911,0.105073 1.63297,-0.09819 0.07924,-0.0035 0.158474,-0.0069 0.237711,-0.01034 -0.0689,0.258381 -0.122301,0.416855 -0.160197,0.475422 l 0.09302,0.02584 c -0.144693,0.912947 -0.349676,1.82934 -0.614947,2.749178 -0.533988,1.505504 -0.831988,2.275478 -0.894,2.309928 -0.05857,0.0172 -0.0844,0.0499 -0.07751,0.0982 l 0.01034,0.0413 c 0.19637,0.75102 0.425468,1.10587 0.687295,1.06453 0.0035,0.0275 0.01897,0.0396 0.04651,0.0362 0.413411,-0.0655 0.825098,-0.26012 1.235063,-0.58394 -0.07924,-0.13092 -0.132635,-0.25666 -0.160196,-0.37724 0.110243,-1.095536 0.502982,-2.642377 1.178219,-4.640526 0.120578,-0.561549 0.246323,-0.992184 0.377236,-1.291907 z" />
    </g>
    <g
       style="font-style:normal;font-weight:normal;font-size:10.5833px;line-height:1.25;font-family:sans-serif;text-align:center;letter-spacing:0px;word-spacing:0px;text-anchor:middle;white-space:pre;shape-inside:url(#rect873);fill:#ffffff;fill-opacity:1;stroke:#000000;stroke-width:0.149873"
       id="text871"
       transform="matrix(3.3267884,0,0,3.3455291,-131.83776,-111.14525)"
       aria-label="overcome">
      <path
         sodipodi:nodetypes="ccccccccccccccccccccccccccccccc"
         id="path894"
         style="font-style:normal;font-variant:normal;font-weight:normal;font-stretch:normal;font-family:'Lived Mas NEW! With Numbers';-inkscape-font-specification:'Lived Mas NEW! With Numbers';text-align:center;text-anchor:middle;stroke-width:0.149873"
         d="m 47.747063,100.75271 c 0.127468,-0.0241 0.256659,-0.0586 0.387572,-0.10335 l 0.05684,0.0465 0.06718,-0.0775 0.05168,-0.0207 c 1.743213,-0.637338 2.878368,-1.427983 3.405466,-2.371936 0.454751,-0.747583 0.596,-1.810392 0.423746,-3.188426 -0.182589,-0.702797 -0.360011,-1.252288 -0.532266,-1.648473 -0.172254,-0.244601 -0.366901,-0.425468 -0.583942,-0.542601 0.02756,-0.144693 0.02239,-0.268716 -0.0155,-0.372069 -0.39963,0.05512 -0.795815,0.14297 -1.188555,0.263549 l -0.07751,-0.07751 -0.07751,0.07751 -0.04134,0.0155 c -1.791444,0.527098 -2.976553,1.259178 -3.555328,2.196241 -0.496092,0.740693 -0.695907,1.831063 -0.599444,3.271108 0.141248,0.740693 0.289386,1.32119 0.444415,1.74149 0.306613,0.530547 0.918115,0.794087 1.834508,0.790647 z m 0.07751,-5.477681 0.113688,-0.10852 c 0.323838,-0.223931 0.728635,-0.458197 1.214392,-0.702798 0.337619,-0.172254 0.633896,-0.341063 0.888832,-0.506427 0.258381,0.106797 0.449584,0.392739 0.573607,0.857826 0.296277,1.102427 0.220485,2.054993 -0.227376,2.857698 -0.341063,0.368624 -0.909502,0.783757 -1.705317,1.245398 -0.313503,0.248046 -0.63734,0.387572 -0.971513,0.418578 -0.361734,0.08957 -0.604613,-0.167087 -0.728636,-0.769977 -0.237711,-1.164439 -0.10852,-2.144565 0.387572,-2.94038 0.103353,-0.103352 0.225653,-0.208427 0.366902,-0.315225 z" />
      <path
         sodipodi:nodetypes="cccccsccsccccccccccccccsscsccccccccccccccccccccccccccccccccccsc"
         id="path896"
         style="font-style:normal;font-variant:normal;font-weight:normal;font-stretch:normal;font-family:'Lived Mas NEW! With Numbers';-inkscape-font-specification:'Lived Mas NEW! With Numbers';text-align:center;text-anchor:middle;stroke-width:0.149873"
         d="m 56.805913,93.07362 c 0,0.07235 -0.111965,0.199815 -0.335896,0.382404 -0.330728,0.544323 -0.60289,0.881942 -0.816485,1.012855 -0.303167,0.427191 -0.783757,1.210947 -1.441768,2.35127 l -0.335895,-0.09819 v -1.534785 c 0,-0.03101 0.0155,-0.04651 0.04651,-0.04651 l -0.04651,-0.09819 v -0.289387 c 0,-0.106798 -0.01723,-0.186035 -0.05168,-0.237711 l 0.05168,-0.289387 v -0.382405 c -0.08268,0 -0.211873,-0.129191 -0.387572,-0.387572 l -0.09302,-0.04651 h -0.05168 l -0.139526,0.09819 c -0.06546,-0.03445 -0.113691,-0.05168 -0.144693,-0.05168 -0.327283,0.237711 -0.583942,0.463364 -0.769977,0.676959 l 0.04651,0.09302 -0.09302,0.289387 0.04651,0.09302 -0.04651,0.242878 c 0,0.07579 0.0155,0.315226 0.04651,0.718301 -0.09646,1.061086 -0.144693,1.798334 -0.144693,2.211744 v 0.335896 c 0,0.375514 0.09646,0.983571 0.289387,1.824172 0.192925,0.161911 0.289387,0.258381 0.289387,0.289381 v 0.24288 h 0.04651 l 0.09302,-0.0517 c 0.04479,0.13436 0.125746,0.23082 0.242878,0.28938 0.382405,0 0.830266,-0.59255 1.343583,-1.777658 l 1.343583,-2.351271 c 0.347953,-0.506427 0.63734,-1.083479 0.868161,-1.731155 l -0.05168,-0.09818 c 0,-0.02411 0.113688,-0.230819 0.341064,-0.620116 v -0.05168 h -0.05168 l -0.04651,0.191202 h -0.09818 v -0.09302 h -0.04651 c -0.07924,0.254936 -0.158474,0.382404 -0.237711,0.382404 v -0.04651 c 0.206705,-0.378959 0.382405,-0.732081 0.527098,-1.059364 v -0.04651 h -0.04651 c -0.08957,0.289387 -0.170532,0.43408 -0.242879,0.43408 0,-0.168809 -0.0155,-0.313502 -0.04651,-0.43408 0,-0.03101 0.06373,-0.127469 0.191203,-0.289388 v -0.04651 z m -0.144694,0.769976 h 0.04651 v 0.09302 h -0.04651 z m -0.05168,0.144694 v 0.09302 c -0.148139,0.258381 -0.242878,0.387572 -0.284219,0.387572 v -0.09819 c 0.117133,-0.237711 0.211872,-0.365179 0.284219,-0.382404 z" />
      <path
         sodipodi:nodetypes="csccscccccccccccccccccccccsccccccccccccccccccsccsccccccccccc"
         id="path898"
         style="font-style:normal;font-variant:normal;font-weight:normal;font-stretch:normal;font-family:'Lived Mas NEW! With Numbers';-inkscape-font-specification:'Lived Mas NEW! With Numbers';text-align:center;text-anchor:middle;stroke-width:0.149873"
         d="m 62.366279,93.145967 h -0.04651 c -2.587259,0 -4.194391,0.434081 -4.821396,1.302242 0,0.327283 -0.256659,1.22645 -0.769977,2.697501 -0.258381,0.740693 -0.387572,1.33497 -0.387572,1.782831 0,0.730359 0.337618,1.245399 1.012855,1.545119 h 0.04651 c 0.186035,-0.1068 0.733803,-0.21876 1.643305,-0.33589 0.60978,-0.13092 1.138601,-0.275611 1.586462,-0.434085 v -0.05168 c -0.539909,0.03105 -0.424172,-0.102176 0,-0.09302 v -0.05168 c -0.245591,0.0054 -0.08731,-0.09483 0.05168,-0.09302 v 0.09302 h 0.04651 c 0,-0.09646 0.03273,-0.144693 0.09819,-0.144693 v -0.04651 c -0.559527,-0.02814 -0.144287,-0.09819 0.191203,-0.09819 0,-0.06201 -0.03273,-0.09302 -0.09819,-0.09302 -0.736791,0.02581 -0.159821,-0.19638 0.09819,-0.19638 0.07235,-0.06201 0.168809,-0.09302 0.289387,-0.09302 v -0.05168 c -0.33676,-0.107604 0.388786,-0.181242 0.434075,-0.19121 v -0.09819 l -0.289387,0.05168 -0.191202,-0.09819 c -0.113688,0.03101 -0.179145,0.04651 -0.19637,0.04651 -0.03101,0 -0.04651,-0.0155 -0.04651,-0.04651 l -0.242879,0.04651 h -0.191202 l -2.263421,0.242879 c -0.09302,0 -0.31867,-0.04823 -0.676959,-0.144694 v -0.09819 c 0.141249,-0.365179 1.057641,-0.766531 2.749178,-1.204057 0.220485,-0.161919 0.41341,-0.242878 0.578774,-0.242878 v -0.04651 h -0.09819 v -0.09819 l 0.335896,-0.09302 v -0.09819 H 61.1157 v -0.09819 c 0.134358,0 0.279051,-0.07924 0.43408,-0.237711 -0.347953,-0.127468 -0.589109,-0.191202 -0.723468,-0.191202 -1.085201,0.03101 -1.712207,0.04651 -1.881016,0.04651 -0.258381,-0.02067 -0.387572,-0.06891 -0.387572,-0.144694 0,-0.303167 0.241156,-0.640786 0.723468,-1.012855 0.07924,-0.110243 0.561548,-0.239433 1.446935,-0.387572 0.05512,0.03445 0.118854,0.05168 0.191203,0.05168 h 0.144693 c 0,-0.120578 0.21015,-0.21704 0.630451,-0.289387 0.05512,0.03101 0.118854,0.04651 0.191202,0.04651 0.454751,-0.258381 0.856104,-0.435803 1.204057,-0.532265 0.4203,-0.241156 0.63045,-0.465087 0.63045,-0.671792 -0.396185,-0.06546 -0.799259,-0.09819 -1.209224,-0.09819 l -0.04651,-0.09819 z m -1.34875,3.519153 v 0.09302 c -0.366675,0.01235 -0.366675,-0.09302 0,-0.09302 z" />
      <path
         sodipodi:nodetypes="cccccccccccccccccccccccccccccccccccccccccccscccsccccscccccccccccccsccccccccccccccccccccccccsccc"
         id="path900"
         style="font-style:normal;font-variant:normal;font-weight:normal;font-stretch:normal;font-family:'Lived Mas NEW! With Numbers';-inkscape-font-specification:'Lived Mas NEW! With Numbers';text-align:center;text-anchor:middle;stroke-width:0.149873"
         d="m 65.487525,94.954636 c 0.909503,-0.110243 1.229896,0.170532 0.961179,0.842323 -0.130913,0.175699 -0.535711,0.40652 -1.214393,0.692462 -0.09302,0.06546 -0.170532,0.125749 -0.232543,0.180867 0.223931,-0.744138 0.38585,-1.316022 0.485757,-1.715652 z m 2.625155,6.040954 c 0.03101,0.0172 0.06546,0.0516 0.103352,0.10335 l 0.04134,0.0207 0.02067,-0.0362 c -0.03101,-0.0138 -0.06546,-0.0465 -0.103353,-0.0982 l -0.04134,-0.0258 z m -3.576,-2.635488 c 0.227375,0.168809 0.530543,0.377237 0.909502,0.625283 0.558104,0.571884 1.22645,1.064535 2.005039,1.477945 0.06201,0.003 0.108522,0.0119 0.139526,0.0258 -0.02756,0.0586 0.04306,0.15851 0.211873,0.29973 l 0.04134,-0.0724 -0.165364,-0.0878 0.03617,-0.0724 0.248046,0.12919 0.02067,-0.0362 c 0.144693,0.17225 0.275606,0.28939 0.392739,0.3514 l -0.0052,-0.0982 c 0.02756,-0.0448 0.110242,-0.031 0.248046,0.0414 l 0.03617,-0.0724 c -0.03445,-0.0172 -0.165366,-0.10161 -0.392739,-0.25322 l -0.222208,-0.0775 0.07751,-0.0465 -0.08268,-0.0465 -0.03617,0.0724 c -0.337619,-1.088647 -0.943954,-1.93097 -1.819005,-2.526969 -0.230821,-0.289387 -0.466809,-0.539156 -0.707965,-0.749306 0.447861,0.06546 0.825098,0.02929 1.131711,-0.108521 0.578774,-0.120577 0.895722,-0.220485 0.950843,-0.299722 0.165364,0 0.342786,-0.346231 0.532265,-1.038693 0.113688,-1.002519 -0.294554,-1.691536 -1.224727,-2.067051 -0.930173,-0.378959 -1.42971,-0.621837 -1.498612,-0.728635 -0.02756,0 -0.151583,-0.03101 -0.372069,-0.09302 l -0.03617,0.03101 c -0.01033,-0.04479 -0.01895,-0.103353 -0.02584,-0.1757 h -0.07235 v 0.04651 h -0.118856 c -0.02067,0 -0.122303,0.04306 -0.30489,0.129191 -0.08268,-0.144694 -0.184312,-0.217041 -0.30489,-0.217041 l 0.04134,0.08785 v 0.04134 c 0,0.05857 -0.06373,0.08785 -0.191202,0.08785 v 0.12919 h 0.07752 v 0.129191 c -0.127469,0 -0.191203,0.02928 -0.191203,0.08785 v 0.299722 l 0.191203,0.21704 -0.04134,0.08785 c 0.01378,0.0069 0.03101,0.01894 0.05168,0.03617 -0.144694,0.234266 -0.439249,1.546843 -0.883664,3.937732 -0.279052,0.764809 -0.418578,1.353918 -0.418578,1.767328 l 0.09302,0.04651 -0.09302,0.279052 0.04651,0.09302 -0.04651,0.27905 c 0.03101,0.0586 0.04651,0.1051 0.04651,0.13952 -0.07235,0 -0.01034,0.0155 0.186035,0.0465 0,-0.062 0.04651,-0.093 0.139526,-0.093 v -0.093 c 0,-0.031 -0.0155,-0.0465 -0.04651,-0.0465 0.09302,-0.15848 0.139526,-0.282509 0.139526,-0.372082 h 0.09302 v 0.186042 h 0.04651 c 0.06201,-0.141257 0.09302,-0.249776 0.09302,-0.325568 h 0.09302 l -0.04651,0.325568 c 0.01033,0.062 0.04134,0.093 0.09302,0.093 0,-0.0792 0.0155,-0.203268 0.04651,-0.372079 h 0.09302 l -0.04651,0.232559 v 0.0465 h 0.04651 c 0,-0.093 0.03101,-0.139533 0.09302,-0.139533 v 0.04651 l -0.04651,0.27905 v 0.0465 h 0.04651 c 0.124023,-0.31006 0.232543,-0.465087 0.32556,-0.465087 V 99.63129 c 0.130913,0 0.256659,-0.423745 0.377237,-1.271236 z m 0.775144,-5.50869 v 0.04134 c 0,0.05857 0.02584,0.08785 0.07751,0.08785 v -0.129191 z" />
      <path
         sodipodi:nodetypes="cccccscccccccccccccccccccccsccccscsccccc"
         id="path902"
         style="font-style:normal;font-variant:normal;font-weight:normal;font-stretch:normal;font-family:'Lived Mas NEW! With Numbers';-inkscape-font-specification:'Lived Mas NEW! With Numbers';text-align:center;text-anchor:middle;stroke-width:0.149873"
         d="m 74.143299,93.145967 h -0.04651 c -1.863791,-0.02756 -3.229767,0.320393 -4.097928,1.04386 -0.723468,0.558104 -1.288462,1.538231 -1.694982,2.94038 -0.124023,0.751029 -0.186034,1.350473 -0.186034,1.798334 0.106797,0.585665 0.399629,0.973238 0.878496,1.162719 0.478867,0.18948 1.086924,0.20498 1.824172,0.0465 0.60978,-0.13092 1.138601,-0.275611 1.586462,-0.434085 v -0.05168 c -0.479531,0.01147 -0.479531,-0.09302 0,-0.09302 v -0.05168 c -0.238548,-0.0083 -0.146846,-0.09302 0.05168,-0.09302 v 0.09302 h 0.04651 c 0,-0.09646 0.03273,-0.144693 0.09819,-0.144693 v -0.04651 c -0.559527,-0.02814 -0.14429,-0.09819 0.191202,-0.09819 0,-0.06201 -0.03273,-0.09302 -0.09819,-0.09302 -0.732301,0.0055 -0.330683,-0.19638 0.09819,-0.19638 0.07235,-0.06201 0.168809,-0.09302 0.289387,-0.09302 v -0.05168 h -0.09819 v -0.09302 c 0.05857,0 0.235989,-0.03273 0.532266,-0.09819 v -0.09819 l -0.289388,0.05168 -0.191202,-0.09819 c -0.113687,0.03101 -0.179144,0.04651 -0.19637,0.04651 -0.03101,0 -0.04651,-0.0155 -0.04651,-0.04651 l -0.242879,0.04651 H 72.36046 l -0.992184,0.439249 c -1.353919,0.499537 -1.941306,0.158473 -1.762161,-1.02319 0.179145,-1.181664 0.639063,-2.079109 1.379756,-2.692334 0.465087,-0.234266 1.157549,-0.427191 2.077386,-0.578774 0.919838,-0.151584 1.596797,-0.363457 2.030878,-0.635618 0.268717,-0.268717 0.403075,-0.506428 0.403075,-0.713133 -0.396185,-0.06546 -0.79926,-0.09819 -1.209225,-0.09819 l -0.04651,-0.09819 z" />
      <path
         sodipodi:nodetypes="ccccccccccccccccccccccccccccccc"
         id="path904"
         style="font-style:normal;font-variant:normal;font-weight:normal;font-stretch:normal;font-family:'Lived Mas NEW! With Numbers';-inkscape-font-specification:'Lived Mas NEW! With Numbers';text-align:center;text-anchor:middle;stroke-width:0.149873"
         d="m 76.396386,100.75271 c 0.127468,-0.0241 0.256659,-0.0586 0.387572,-0.10335 l 0.05684,0.0465 0.06718,-0.0775 0.05168,-0.0207 c 1.743213,-0.637338 2.878368,-1.427983 3.405466,-2.371936 0.454751,-0.747583 0.596,-1.810392 0.423745,-3.188426 -0.182589,-0.702797 -0.360011,-1.252288 -0.532265,-1.648473 -0.172255,-0.244601 -0.366902,-0.425468 -0.583942,-0.542601 0.02756,-0.144693 0.02239,-0.268716 -0.0155,-0.372069 -0.39963,0.05512 -0.795815,0.14297 -1.188554,0.263549 l -0.07752,-0.07751 -0.07751,0.07751 -0.04134,0.0155 c -1.791444,0.527098 -2.976553,1.259178 -3.555327,2.196241 -0.496092,0.740693 -0.695907,1.831063 -0.599445,3.271108 0.141249,0.740693 0.289387,1.32119 0.444416,1.74149 0.306613,0.530547 0.918115,0.794087 1.834508,0.790647 z m 0.07751,-5.477681 0.113688,-0.10852 c 0.323838,-0.223931 0.728635,-0.458197 1.214392,-0.702798 0.337618,-0.172254 0.633895,-0.341063 0.888832,-0.506427 0.258381,0.106797 0.449583,0.392739 0.573606,0.857826 0.296277,1.102427 0.220486,2.054993 -0.227375,2.857698 -0.341063,0.368624 -0.909502,0.783757 -1.705317,1.245398 -0.313503,0.248046 -0.637341,0.387572 -0.971514,0.418578 -0.361734,0.08957 -0.604612,-0.167087 -0.728635,-0.769977 -0.237711,-1.164439 -0.10852,-2.144565 0.387572,-2.94038 0.103353,-0.103352 0.225653,-0.208427 0.366901,-0.315225 z" />
      <path
         id="path906"
         style="font-style:normal;font-variant:normal;font-weight:normal;font-stretch:normal;font-family:'Lived Mas NEW! With Numbers';-inkscape-font-specification:'Lived Mas NEW! With Numbers';text-align:center;text-anchor:middle;stroke-width:0.149873"
         d="m 85.909985,96.267213 -0.04134,-0.08268 0.08268,-0.124023 v -0.04134 h -0.04134 c -0.127468,0.347953 -0.320393,0.63734 -0.578774,0.868161 -0.117133,0.192925 -0.199815,0.289388 -0.248046,0.289388 h -0.08785 c 0,-0.02756 -0.01378,-0.0689 -0.04134,-0.124024 l 0.129191,-0.248046 c -0.05167,-0.199815 -0.108517,-0.351398 -0.170532,-0.454751 0.02756,-0.189479 0.05512,-0.313502 0.08268,-0.372069 -0.02756,-0.04823 -0.04134,-0.105077 -0.04134,-0.170532 0,-0.02756 0.05684,-0.303167 0.170532,-0.82682 h -0.04134 l 0.04134,-0.08268 -0.08785,-0.124023 v -0.08268 h 0.08785 c -0.168809,-0.857826 -0.50126,-1.286739 -0.997352,-1.286739 -0.172254,-0.05512 -0.268716,-0.124022 -0.289387,-0.206705 -0.158474,0.110243 -0.351399,0.192925 -0.578774,0.248046 -0.823375,1.03008 -1.30741,1.929247 -1.452103,2.697501 l 0.206705,-0.294555 c 0.02756,0.05512 0.04134,0.09818 0.04134,0.129191 l -0.248046,0.372069 c -0.389295,0.906057 -0.583942,1.374589 -0.583942,1.405595 -0.130913,0 -0.241156,0.235988 -0.330728,0.707965 -0.179145,0 -0.37207,0.456474 -0.578775,1.369421 0.117133,0.523647 0.268717,0.785477 0.454752,0.785477 0.692462,-0.33073 1.038693,-0.663177 1.038693,-0.99735 l -0.08268,0.04134 c 0,-0.09302 0.08268,-0.285942 0.248046,-0.578774 l 0.08268,0.04134 h 0.04134 c 0,-0.06201 0.05512,-0.199817 0.165364,-0.41341 V 98.67016 H 82.2203 l -0.04134,0.165364 h -0.08268 v -0.04134 c 0.385849,-0.833711 0.689017,-1.565791 0.909502,-2.196242 0.227375,-0.378959 0.394462,-0.599445 0.50126,-0.661456 0.120578,0.175699 0.20326,0.396185 0.248046,0.661456 0,0.127469 -0.02756,0.416856 -0.08268,0.868162 0,1.061086 0.261826,1.779386 0.785479,2.1549 0.07924,0 0.175699,0.07062 0.289387,0.211873 h 0.124023 l 0.124023,-0.08268 c 0.02756,0 0.04134,0.01378 0.04134,0.04134 0.361734,-0.05512 0.542601,-0.180866 0.542601,-0.377237 l 0.496092,-1.19889 c 0.08268,-0.165364 0.192925,-0.33245 0.330728,-0.501259 0.81304,-1.457271 1.324635,-2.340935 1.534786,-2.650993 l 0.124023,-0.124023 c 0.08268,0 0.151584,0.192925 0.206705,0.578774 -0.110243,0.830265 -0.165364,1.3143 -0.165364,1.452103 v 0.165364 c 0,0.06201 -0.01378,0.117135 -0.04134,0.165365 l 0.04134,0.08268 -0.04134,0.248046 c 0,0.08268 0.01378,0.124023 0.04134,0.124023 l -0.04134,0.211872 c 0,0.234266 0.02756,0.523653 0.08268,0.868162 h -0.04134 c 0.165364,0.857824 0.358289,1.286736 0.578774,1.286736 0,0.11025 0.09819,0.16537 0.294554,0.16537 0.155029,0 0.354844,-0.13091 0.599445,-0.392743 0.41341,-0.40652 0.453029,-0.782034 0.118856,-1.126542 L 89.59967,98.25675 h -0.124023 l -0.04134,-0.289388 v -0.124023 h -0.08268 v -0.04134 c 0.05512,-0.471977 0.08268,-0.735526 0.08268,-0.790647 l -0.08268,0.04134 v -0.04134 c 0.05512,-0.06545 0.08268,-0.120575 0.08268,-0.165364 -0.02756,-0.05512 -0.04134,-0.09646 -0.04134,-0.124023 0.05512,0 0.08268,-0.04134 0.08268,-0.124023 l -0.04134,-0.08268 c 0.05512,-0.03789 0.137802,-0.535708 0.248046,-1.493444 0,-0.148139 -0.04134,-0.50815 -0.124023,-1.080034 0.02756,0 0.04134,-0.01378 0.04134,-0.04134 -0.03789,0 -0.120575,-0.206705 -0.248046,-0.620115 H 89.18626 c 0,-0.130913 -0.208428,-0.227376 -0.625283,-0.289387 -0.533988,0 -1.266069,0.787202 -2.196242,2.361605 l -0.330728,0.707965 c -0.02067,0.137803 -0.06201,0.206705 -0.124023,0.206705 z m -4.18578,3.395131 v 0.08785 c -0.04134,0.110243 -0.08268,0.165364 -0.124024,0.165364 h -0.04134 v -0.08268 c 0,-0.04479 0.05512,-0.101631 0.165365,-0.170532 z"
         sodipodi:nodetypes="ccccccscccccscccccccccccccccccccccccccccccccccccccccccccssccccccccscccccccccccccccccccccccscccscssc" />
      <path
         sodipodi:nodetypes="csccsccccccccccccccccccccccccsccccccccccccccccccsccsccccccccccc"
         id="path908"
         style="font-style:normal;font-variant:normal;font-weight:normal;font-stretch:normal;font-family:'Lived Mas NEW! With Numbers';-inkscape-font-specification:'Lived Mas NEW! With Numbers';text-align:center;text-anchor:middle;stroke-width:0.149873"
         d="m 95.583785,93.145967 h -0.04651 c -2.587259,0 -4.194391,0.434081 -4.821396,1.302242 0,0.327283 -0.256659,1.22645 -0.769976,2.697501 -0.258381,0.740693 -0.387572,1.33497 -0.387572,1.782831 0,0.730359 0.337618,1.245399 1.012855,1.545119 h 0.04651 c 0.186035,-0.1068 0.733803,-0.21876 1.643306,-0.33589 0.60978,-0.13092 1.1386,-0.275611 1.586461,-0.434085 v -0.05168 c -0.47953,0.01147 -0.47953,-0.09302 0,-0.09302 v -0.05168 c -0.238548,-0.0083 -0.146846,-0.09302 0.05168,-0.09302 v 0.09302 h 0.04651 c 0,-0.09646 0.03273,-0.144693 0.09819,-0.144693 v -0.04651 c -0.559526,-0.02814 -0.144289,-0.09819 0.191202,-0.09819 0,-0.06201 -0.03273,-0.09302 -0.09819,-0.09302 -0.399431,0.04658 -0.727954,-0.09819 -0.144695,-0.09819 -0.02473,-0.156708 0.121214,-0.09819 0.242878,-0.09819 0.07235,-0.06201 0.168809,-0.09302 0.289387,-0.09302 v -0.05168 h -0.09819 v -0.09302 c 0.05857,0 0.235989,-0.03273 0.532266,-0.09819 v -0.09819 l -0.289387,0.05168 -0.191202,-0.09819 c -0.113688,0.03101 -0.179145,0.04651 -0.19637,0.04651 -0.03101,0 -0.04651,-0.0155 -0.04651,-0.04651 l -0.242878,0.04651 h -0.191203 l -2.26342,0.242879 c -0.09302,0 -0.31867,-0.04823 -0.676959,-0.144694 v -0.09819 c 0.141248,-0.365179 1.05764,-0.766531 2.749177,-1.204057 0.220485,-0.161919 0.41341,-0.242878 0.578774,-0.242878 v -0.04651 h -0.09818 v -0.09819 l 0.335895,-0.09302 v -0.09819 h -0.09302 v -0.09819 c 0.134358,0 0.279052,-0.07924 0.434081,-0.237711 -0.347954,-0.127468 -0.58911,-0.191202 -0.723468,-0.191202 -1.085202,0.03101 -1.712207,0.04651 -1.881016,0.04651 -0.258381,-0.02067 -0.387572,-0.06891 -0.387572,-0.144694 0,-0.303167 0.241156,-0.640786 0.723467,-1.012855 0.07924,-0.110243 0.561549,-0.239433 1.446936,-0.387572 0.05512,0.03445 0.118854,0.05168 0.191202,0.05168 h 0.144694 c 0,-0.120578 0.21015,-0.21704 0.63045,-0.289387 0.05512,0.03101 0.118854,0.04651 0.191202,0.04651 0.454751,-0.258381 0.856104,-0.435803 1.204057,-0.532265 0.420301,-0.241156 0.630451,-0.465087 0.630451,-0.671792 -0.396185,-0.06546 -0.79926,-0.09819 -1.209225,-0.09819 l -0.04651,-0.09819 z m -1.348751,3.519153 v 0.09302 c -0.366674,0.01235 -0.366674,-0.09302 0,-0.09302 z" />
    </g>
    <text
       style="font-style:normal;font-weight:normal;font-size:10.5833px;line-height:1.05;font-family:sans-serif;letter-spacing:0px;word-spacing:0px;white-space:pre;shape-inside:url(#rect881);fill:#ffffff;fill-opacity:1;stroke:none;stroke-width:0.27946;"
       id="text879"
       xml:space="preserve"
       transform="matrix(1.7891674,0,0,1.7891674,-89.89298,110.66522)"
       x="33.264015"
       y="0"><tspan
         x="60.597648"
         y="32.788541"><tspan
           style="font-style:normal;font-variant:normal;font-weight:800;font-stretch:normal;font-family:'League Spartan';-inkscape-font-specification:'League Spartan Ultra-Bold';text-align:center;text-anchor:middle;fill:#ffffff;stroke:#000000;stroke-width:0.27946">AND THE DARKNESS
</tspan></tspan><tspan
         x="87.738024"
         y="44.181047"><tspan
           style="font-style:normal;font-variant:normal;font-weight:800;font-stretch:normal;font-family:'League Spartan';-inkscape-font-specification:'League Spartan Ultra-Bold';text-align:center;text-anchor:middle;fill:#ffffff;stroke:#000000;stroke-width:0.27946">CANNOT</tspan></tspan></text>
    <text
       style="font-style:normal;font-weight:normal;font-size:10.5833px;line-height:1.05;font-family:sans-serif;letter-spacing:0px;word-spacing:0px;white-space:pre;shape-inside:url(#rect887);fill:#ffffff;fill-opacity:1;stroke:none;stroke-width:0.27946;"
       id="text885"
       xml:space="preserve"
       transform="matrix(1.7891674,0,0,1.7891674,-89.838099,-26.189929)"
       x="33.264015"
       y="0"><tspan
         x="100.25402"
         y="32.788541"><tspan
           style="font-style:normal;font-variant:normal;font-weight:800;font-stretch:normal;font-family:'League Spartan';-inkscape-font-specification:'League Spartan Ultra-Bold';text-align:center;text-anchor:middle;fill:#ffffff;stroke:#000000;stroke-width:0.27946">THE</tspan></tspan></text>
    <text
       style="font-style:normal;font-weight:normal;font-size:10.5833px;line-height:1.05;font-family:sans-serif;letter-spacing:0px;word-spacing:0px;white-space:pre;shape-inside:url(#rect893);fill:#ffffff;fill-opacity:1;stroke:none;stroke-width:0.27946;"
       id="text891"
       xml:space="preserve"
       transform="matrix(1.7891674,0,0,1.7891674,-90.112513,191.68684)"
       x="33.264015"
       y="0"><tspan
         x="84.658119"
         y="32.788541"><tspan
           style="font-style:normal;font-variant:normal;font-weight:800;font-stretch:normal;font-family:'League Spartan';-inkscape-font-specification:'League Spartan Ultra-Bold';text-align:center;text-anchor:middle;fill:#ffffff;stroke:#000000;stroke-width:0.27946">THE LIGHT</tspan></tspan></text>
    <text
       y="0"
       x="33.264015"
       transform="matrix(1.1457578,0,0,1.1457578,45.187234,248.24927)"
       xml:space="preserve"
       id="text915"
       style="font-style:normal;font-weight:normal;font-size:10.5833px;line-height:1.05;font-family:sans-serif;letter-spacing:0px;word-spacing:0px;white-space:pre;shape-inside:url(#rect917);fill:#ffffff;fill-opacity:1;stroke:none;stroke-width:0.436393;"><tspan
         x="31.75"
         y="32.788541"><tspan
           style="font-style:normal;font-variant:normal;font-weight:bold;font-stretch:normal;font-family:'League Spartan';-inkscape-font-specification:'League Spartan Bold';fill:#000000;stroke:none;stroke-width:0.436393">JOHN 1:5</tspan></tspan></text>
  </g>
</svg>
